<?xml version="1.0" encoding="utf-8"?>
<!-- Generator: Adobe Illustrator 25.2.3, SVG Export Plug-In . SVG Version: 6.00 Build 0)  -->
<svg version="1.1" xmlns="http://www.w3.org/2000/svg" xmlns:xlink="http://www.w3.org/1999/xlink" x="0px" y="0px"
	 viewBox="0 0 100 97.5" style="enable-background:new 0 0 100 97.5;" xml:space="preserve">
<style type="text/css">
	.st0{fill:#FFFFFF;}
</style>
<g id="Layer_2">
</g>
<g id="Layer_1">
	<path class="st0" d="M2.5,23v54c0,11.3,9.2,20.5,20.5,20.5h54c11.3,0,20.5-9.2,20.5-20.5V23c0-11.3-9.2-20.5-20.5-20.5H23
		C11.7,2.5,2.5,11.7,2.5,23z M52.1,26.7l15.4,15.4c0.6,0.6,0.9,1.3,0.9,2.1c0,0.7-0.3,1.5-0.9,2.1c-1.1,1.1-3,1.1-4.1,0L52.9,35.8
		v35.5c0,1.6-1.3,2.9-2.9,2.9c-1.6,0-2.9-1.3-2.9-2.9V35.8L36.7,46.2c-1.1,1.1-3,1.1-4.1,0c-1.1-1.1-1.1-3,0-4.1L48,26.7
		C49.1,25.5,50.9,25.5,52.1,26.7z"/>
</g>
</svg>
